/* XPM */
static char *result[] = {
/* columns rows colors chars-per-pixel */
"16 16 199 2 ",
"   c #000633",
".  c #000C39",
"X  c #000F3B",
"o  c #02113C",
"O  c #05143E",
"+  c #021540",
"@  c #031640",
"#  c #051541",
"$  c #051640",
"%  c #041741",
"&  c #081A43",
"*  c #0F1E47",
"=  c #081A4A",
"-  c #0E1E48",
";  c #0E1F48",
":  c #111F48",
">  c #0F214F",
",  c #122049",
"<  c #15234D",
"1  c #13244F",
"2  c #16274F",
"3  c #0B2054",
"4  c #132453",
"5  c #182750",
"6  c #192A52",
"7  c #1C2B50",
"8  c #1E2E57",
"9  c #202F53",
"0  c #222E54",
"q  c #213155",
"w  c #253258",
"e  c #25325A",
"r  c #253458",
"t  c #243459",
"y  c #25355A",
"u  c #27375B",
"i  c #27365C",
"p  c #28355A",
"a  c #29385F",
"s  c #2A385E",
"d  c #2C385C",
"f  c #2E3B5E",
"g  c #2F3C5C",
"h  c #102A67",
"j  c #173270",
"k  c #1E3770",
"l  c #273862",
"z  c #2B3961",
"x  c #2C3E69",
"c  c #303E62",
"v  c #343F62",
"b  c #313F65",
"n  c #334063",
"m  c #344063",
"M  c #364362",
"N  c #334164",
"B  c #364365",
"V  c #344166",
"C  c #354467",
"Z  c #394467",
"A  c #394567",
"S  c #34436B",
"D  c #3A4669",
"F  c #3A486B",
"G  c #3D4869",
"H  c #3C4A68",
"J  c #3E496B",
"K  c #3D4B6B",
"L  c #3F4A6B",
"P  c #38486E",
"I  c #3D4A6C",
"U  c #3D4B6C",
"Y  c #3E4A6C",
"T  c #3F4B6C",
"R  c #3C4B73",
"E  c #3E4F79",
"W  c #404B6B",
"Q  c #404A6C",
"!  c #414C6D",
"~  c #414E6C",
"^  c #414E6F",
"/  c #424F6F",
"(  c #47526C",
")  c #4B566F",
"_  c #434F71",
"`  c #465271",
"'  c #495473",
"]  c #495573",
"[  c #4A5672",
"{  c #485474",
"}  c #4C5574",
"|  c #4C5575",
" . c #4D5675",
".. c #4D5776",
"X. c #4C5777",
"o. c #4D5871",
"O. c #4C5877",
"+. c #4D5977",
"@. c #4E5876",
"#. c #44547D",
"$. c #45567F",
"%. c #4D5B79",
"&. c #4E5A78",
"*. c #49597D",
"=. c #505970",
"-. c #505977",
";. c #515B79",
":. c #505B7A",
">. c #515C78",
",. c #525C7A",
"<. c #555F79",
"1. c #555E7B",
"2. c #565F7D",
"3. c #55617D",
"4. c #56607C",
"5. c #57607D",
"6. c #57617E",
"7. c #5C657A",
"8. c #58617F",
"9. c #59627E",
"0. c #59637F",
"q. c #61697F",
"w. c #646B7E",
"e. c #2D4680",
"r. c #3A538A",
"t. c #4F5E81",
"y. c #40568A",
"u. c #445989",
"i. c #41588C",
"p. c #4E618D",
"a. c #5A6481",
"s. c #5E6782",
"d. c #596687",
"f. c #5F6985",
"g. c #5C6A8C",
"h. c #5E6B8E",
"j. c #536691",
"k. c #626B81",
"l. c #606985",
"z. c #616B86",
"x. c #636D85",
"c. c #626C86",
"v. c #636D86",
"b. c #636D87",
"n. c #686F82",
"m. c #646D88",
"M. c #666F89",
"N. c #667087",
"B. c #697082",
"V. c #6D7383",
"C. c #66708A",
"Z. c #6A7389",
"A. c #68728B",
"S. c #6F778A",
"D. c #69738C",
"F. c #737989",
"G. c #71798E",
"H. c #797E8B",
"J. c #6E7790",
"K. c #6F7991",
"L. c #6F7A92",
"P. c #6C7A98",
"I. c #6E7C9B",
"U. c #6E7C9C",
"Y. c #737B93",
"T. c #777D91",
"R. c #747C94",
"E. c #747F97",
"W. c #586EA1",
"Q. c #7B818E",
"!. c #768095",
"~. c #778097",
"^. c #7E8390",
"/. c #7F8593",
"(. c #7C8597",
"). c #77829C",
"_. c #788298",
"`. c #7D8698",
"'. c #7A849C",
"]. c #79859E",
"[. c #7B87A0",
"{. c #7B88A5",
"}. c #828793",
"|. c #808595",
" X c #828996",
".X c #898E97",
"XX c #80879C",
"oX c #828B9F",
"OX c #898F9A",
"+X c #8990A5",
"@X c #8D95A7",
"#X c #8F96A6",
"$X c #8994AC",
"%X c #9398A1",
"&X c #9FA5B5",
"*X c #ADB2BC",
"=X c #94A1C0",
"-X c #AEB4C4",
";X c None",
/* pixels */
";X;X;X;X;X;X9 M ~ C ;X;X;X;X;X;X",
";X;X;X;X( Q.V.n.T.&X^.=.# ;X;X;X",
";X;X4 #Xw.f e _ X.< m S.H.1 ;X;X",
";X;X(.'.V Q f.B 5.L ..s >. X3 ;X",
";X*.N.z 4.z.:.Y I a.R.| a E.{.;X",
";X!.E 9.c.+.^ / U &.O.{ ] $.@Xj ",
"e.[.#.@.0.m.` $ $ % @ o q h.].y.",
"i.P.g.}  .,.A.O r _.~.Y.XXd.I.p.",
"W.=XS 1.! ;.K . + 2 : y v.P U.j.",
"r.$Xt.W n 6.t   +.+XJ.' A l ).u.",
"h `.R s.p M.& X C.T ! d v x -Xk ",
";X%.Z.b -.b.0 u D.w ..G V x.L.;X",
";X= /.<.J 8.K.3.l.D 2.i [ %X> ;X",
";X;X, OXoXN 5 8 F Z c k..X7 ;X;X",
";X;X;X- G.}.F.q.7.|.*XB.* ;X;X;X",
";X;X;X;X;X; g ) o.H 6 ;X;X;X;X;X"
};
