/* XPM */
static char *fb6d9a81cf6d441cc11dba5c199ee1fdBDmcgZFozSf977XN[] = {
/* columns rows colors chars-per-pixel */
"64 64 217 2 ",
"   c None",
".  c #00002D",
"X  c #000533",
"o  c #000936",
"O  c #000C3A",
"+  c #00063A",
"@  c #01133E",
"#  c #0A133E",
"$  c #000E42",
"%  c #000F4A",
"&  c #021441",
"*  c #0A1641",
"=  c #061944",
"-  c #0C1A44",
";  c #01154B",
":  c #04194B",
">  c #0C1E49",
",  c #111C45",
"<  c #131E49",
"1  c #131944",
"2  c #041C53",
"3  c #021C5A",
"4  c #001551",
"5  c #0F214A",
"6  c #14234B",
"7  c #1B254D",
"8  c #19274C",
"9  c #09225D",
"0  c #092158",
"q  c #1C2A53",
"w  c #162856",
"e  c #222D53",
"r  c #233156",
"t  c #25345A",
"y  c #2A355A",
"u  c #2C3A5E",
"i  c #293257",
"p  c #313A5F",
"a  c #22284E",
"s  c #011E63",
"d  c #001D69",
"f  c #042164",
"g  c #0A2563",
"h  c #04236C",
"j  c #0C296B",
"k  c #09276C",
"l  c #152D67",
"z  c #042673",
"x  c #0C2C74",
"c  c #072979",
"v  c #072A77",
"b  c #112F74",
"n  c #12327B",
"m  c #1C3A7C",
"M  c #193575",
"N  c #1D3367",
"B  c #2D3C62",
"V  c #243863",
"C  c #333E61",
"Z  c #383F61",
"A  c #233C77",
"S  c #344164",
"D  c #3A4466",
"F  c #3A4669",
"G  c #3E4A6C",
"H  c #384669",
"J  c #2A4278",
"K  c #374A77",
"L  c #2D416F",
"P  c #585756",
"I  c #494846",
"U  c #424C6D",
"Y  c #494F6E",
"T  c #44516F",
"R  c #4A546D",
"E  c #434F71",
"W  c #455272",
"Q  c #4A5574",
"!  c #4D5976",
"~  c #4D5A79",
"^  c #535D7B",
"/  c #525A77",
"(  c #55617D",
")  c #59637E",
"_  c #576076",
"`  c #6A6967",
"'  c #676C76",
"]  c #767574",
"[  c #7D7C7B",
"{  c #787877",
"}  c #706F6C",
"|  c #65635E",
" . c #807F7C",
".. c #81807E",
"X. c #1A3A82",
"o. c #274486",
"O. c #354D84",
"+. c #3B5389",
"@. c #395592",
"#. c #465A88",
"$. c #465D92",
"%. c #566381",
"&. c #5A6582",
"*. c #5D6985",
"=. c #57678D",
"-. c #4E6391",
";. c #576B98",
":. c #4E6089",
">. c #626C85",
",. c #626E89",
"<. c #666D86",
"1. c #66718B",
"2. c #6B748D",
"3. c #6D7689",
"4. c #72798A",
"5. c #6D7690",
"6. c #6E7992",
"7. c #697797",
"8. c #737C93",
"9. c #747E9A",
"0. c #616F90",
"q. c #5B71A2",
"w. c #687AA4",
"e. c #7A8296",
"r. c #7C849A",
"t. c #77839A",
"y. c #7786A8",
"u. c #7588B2",
"i. c #858483",
"p. c #8C8C8B",
"a. c #898886",
"s. c #908F8D",
"d. c #91918E",
"f. c #828A9D",
"g. c #868B96",
"h. c #949493",
"j. c #9A9997",
"k. c #9C9B9A",
"l. c #96979A",
"z. c #8F9194",
"x. c #A09F9C",
"c. c #A2A19F",
"v. c #848CA2",
"b. c #898EA2",
"n. c #8B92A5",
"m. c #8C94A9",
"M. c #8E98AB",
"N. c #8591A9",
"B. c #9297A3",
"V. c #9A9DA4",
"C. c #939AAC",
"Z. c #959AA8",
"A. c #8997B7",
"S. c #969EB1",
"D. c #9A9FB1",
"F. c #9DA0A9",
"G. c #9CA3B3",
"H. c #9AA5BC",
"J. c #A3A3A3",
"K. c #ACACAB",
"L. c #A7A7A9",
"P. c #B0AFAC",
"I. c #B1B0AE",
"U. c #A1A6B5",
"Y. c #A4AAB6",
"T. c #AAADB3",
"R. c #A4ABBA",
"E. c #A9AEBC",
"W. c #A0A7B8",
"Q. c #ACB1BE",
"!. c #AEB0B5",
"~. c #B4B4B3",
"^. c #BCBCBA",
"/. c #B6B7B9",
"(. c #C0BFBC",
"). c #BFC0BF",
"_. c #C2C1BE",
"`. c #99A5C1",
"'. c #AEB5C2",
"]. c #ACB5C8",
"[. c #B1B6C3",
"{. c #B3BAC6",
"}. c #B8BCC6",
"|. c #B5BBC9",
" X c #B9BECA",
".X c #A7B2CA",
"XX c #BCC2CC",
"oX c #BDC0C5",
"OX c #BBC3D6",
"+X c #C5C4C3",
"@X c #C2C4CC",
"#X c #CCCCCB",
"$X c #C9C8C6",
"%X c #D2D1CE",
"&X c #C1C6D1",
"*X c #C5CAD3",
"=X c #CACDD5",
"-X c #CCD1D9",
";X c #D3D3D3",
":X c #D2D5DC",
">X c #DEDDDB",
",X c #D8D8DA",
"<X c #E0DFDD",
"1X c #E3E1DE",
"2X c #DADDE2",
"3X c #D4D9E3",
"4X c #DEE1E7",
"5X c #E3E3E3",
"6X c #E3E5EA",
"7X c #EBEBEC",
"8X c #E8E9EA",
"9X c #F2F2EF",
"0X c #F3F4F4",
"qX c #FFFFFF",
"wX c #FEFEFE",
"eX c #F7F8F9",
"rX c #EAECF0",
/* pixels */
"                                                    & @ @ @ & @ & & & & @ &                                                     ",
"                                            & & & @ @ O O o O X o O o o O @ @ & & &                                             ",
"                                        & @ @ O O = = r Q Q R r.2.R *.Q u > @ o O @ @ @                                         ",
"                                  @ & @ O @ 6 S _ 3.L.i.c.K.^.I.,X..wXwXeX6X{.2.S > O @ @ & &                                   ",
"                                @ @ o @ S ) z.l.} } wXc.p.k.$Xd.J.a.wXwXwXwXwX#X[ XX_ t O O @ @                                 ",
"                            @ & @ @ S 4.c.5X/.h.L.] 7XT.B.Z.e.m.g.e.{.-XrXwXwX+Xa.l.%X .n.r @ @ @ &                             ",
"                          & @ O q b.J.>X[ +X+XV.f.&.u q 5 O O X X O @ * w G 8.U.:Xx.j.d.a._.<.q O & &                           ",
"                      & & O = ! /.i.s.c./.B.U q O O O @ @ G 6 r W & - @ @ o o & t 6.L.#X~.I.s.~.R = $ & &                       ",
"                    & : O 6 C.1X+XL.k.m.S @ O @ r @ t S @ r.e C m.X U i * G & @ O o > &.T./.#X0X..4.6 @ & &                     ",
"                  : = $ B =Xa.[ [ z.D * o > * < H.* S H o W * Q '.O W t @ >.* & * & & X = 9.^.k.L.d.' q & : &                   ",
"                : : O G 6XwX7X+Xm.5 O > O T y - Q.* i %.# {.F G.0XS S.0.o &.*.%.%.( m.u O X y [.$XP [ F.S $ : :                 ",
"              : : $ K 7XwXwX0XQ + + & 7 o W y * W.& X F ~ ^ = U C.. B 7 . X o o O o u * O O O = f.I.wX5X{ K & : :               ",
"              : : t >XwXwX6XG + 6 H q n.> U i U *XS 6.W D M.@ S XX( ^ ( &.&.&.&.%.( XXt.,.1.O & O t.6X] j.F.u : :               ",
"            2 : N F.] 7XrXH + :  Xb.%.N.O E a &.eX~ ! n.* q * - 2.v.e.r.r.r.r.r.r.r.4XE._ C.e q & O *.#X .#XB.w : 2             ",
"          0 2 2 G.9Xa.4.K O : O 2.8.D 1 * F e 7 =X< * p 1., @ - 7 . 6 # X * @ . . . t o o O 1.y B : $ 9.+XL.s.|.2 2 2           ",
"          0 4 %.J.} /./ $ V :X2.W C C *X1 M.&.,.wX&.5.n.< 1.o ! Q.# U.&.6 =Xe y *./ E.) * G # 2.U , 0 $ m.K.!.,X~ 4 0           ",
"        9 4 K V.;X^.8.2 $ G n.8.S < 1.p X ~ u a {.q S Q X %.- q &.X ~ F *.Z D ^ 7 7 2.a 7 M.Q X - <.6 ; w '.a.` Q.A 4 9         ",
"      9 9 g >.J.[ F.w 3 q q / p 1 1., e S u u U {.@ C H X *.y p ~ X ~ b.6 i *.6.XX~ :XQ 6 U U &.<.7 B B % K K.0XwXE.3 9 g       ",
"      g 9 K K.[ k.=.4 w ~ %.B < 2.1 8.[.G.G.G.U.r.O q <.# B ( &.B O t q C %.1 -X:X( 8X9.7 ! X H q # 1.= 2 ; A.wXwXwX#.3 g       ",
"      g f <.1XwXn.9 3 * * * i 9.e f.U., @ = * * * 6 * F 6.7 * , < 6 - U 2.a E.8.C 7 Y.p B *.* 2.H q ,.- w 3 N 2XwX0XM.s g       ",
"    j f K ' P ~.$.4 K >.1.8.C.^ Y.@X<.Y.E.E.E.E.E.E.Q.e.t.G.v.v.v.v.m.S.>.@XY.b.|.( =X5.5.m.1.wX-X&.m.S r.#.4 y.#Xs.h.@.f g     ",
"    j k =.k.j.f.k 3 C W / ,.^ n. X8.{.}.'.[.[.[.[.Q.{.*XM.F.G.G.G.G.G.b.{.{.v.[.E.b. XC.C.G.C.&X[.n.C.^ m.*.4 A 2Xh.^.9.h j     ",
"  j j M e.[ +X=.s N u C C e 7 O X O @ @ O O O @ @ @ O @ @ @ @ @ @ @ @ @ @ @ @ @ @ @ O & @ @ @ @ O @ @ @ *.Q 9 f H.a.#XE.M j b   ",
"  b z K $X>XB.J k N.|.|.XX=XD.2.e.u - o o O @ @ @ @ @ @ @ @ @ @ @ @ @ @ @ @ @ @ @ @ @ & @ @ @ @ & @ O q *X{.w h -.^.p.a.#.h x   ",
"  x z w.K.%XN.v 3 @ 5 6 t S U m.}.D.f.<.Q 7 @ o o @ @ @ @ @ @ @ @ @ @ @ & @ @ & @ @ @ @ @ @ @ @ @ @ O R b.S : f m |.j.k.y.z b   ",
"  b b f.j.c.y.d -.*.i f.F U Q ~ ^ U 8.2XG.2X@X8./ 6 @ X O @ @ @ @ @ @ @ @ @ @ @ @ @ @ @ @ @ @ @ & @ o m.[.8.<.K h `.L._.f.b b   ",
"n b m V._.~.@.h y.f.y v.D F D 4.8.* 8.v.5.4X*Xb.*X@XU.e.D # @ @ & @ @ @ @ @ @ & @ @ @ @ @ @ @ @ @ @ 5 oXQ.C.E.#.h w.oXj.Z.o.x n ",
"n v @.L...}.o.k W u o U 1 X y ^ O &.p S XXC e y / Y.7Xn.T 8 @ @ O o o o o o o o o o o o O o o o o o e n.G Q D 0 z ;.-XJ./.O.v n ",
"n v -.a.x.M.X.o.{.'.G.wXXX~ &.O &.p Z XXe C &.*.XXm.Q.6 o @ @ 5 T 3.8.8.<.2.*.>.<.*.<.*.*.*.) <.) F 8.Q.G.{.r.H.v @.!.eX/.$.v n ",
"n v -.%XI.N.n b ( ( *.Y.5.&.O %.p Z XXa U / # - Q 8.f.@ @ @ @ @ 8 ! r.#XwX0XeX5X4X:X2X7X,X2X>X[.8XY.^ 8.W y H 1.n o.@X..s.q.v n ",
"n z u.$X[ `.c g 5.8.&.W / O &.C Z XXe U W 1 D U ( U.>.O @ @ @ @ @ o . S 8X2X2X4X&X&X-X=X:X'.[.C.<.}.E.2.2.T o t.m X.{.+Xx.=.c n ",
"n c w.` ~.H.c b [.M.t.t.- ( p Z XXa U U 7 [.D.D.[.,XG o @ @ @ @ @ @ @ = 5 5 > 6 5 5 6 5 5 > # 8.Q 6.wXD.r.r.6 G.X.X.[.P | q.c n ",
"n z u.7XrX`.c f U u O U m.D Z @Xe U W 7  XR . * Q B.5 @ @ @ @ = @ @ @ @ @ @ @ @ @ @ O @ @ @ @ Z.( 6 Q r.T 1.W 6.M X.OX$XI.=.c n ",
"n z u.wXwX].z A 2.,.E ,.^ ^  Xe G / # {.Y , ~ ,.G.z.@ @ @ @ @ @ @ @ @ @ @ @ @ @ @ & @ @ @ o r }.b.( Y.Q ! U t y.m m XX7X,X=.v n ",
"x z w.wXwXOXx b 7 q i - C  Xa U / X C W.. Q ^ Q G.) O @ @ @ @ @ @ @ o . o o o X X o O * @ O _ M.! S ( D &.# O q n o.[.i.i.;.v x ",
"x z ;.wXwX3XM h 1.Q * Y  Xp U ~ X X C G.X W D G C.S @ @ = @ @ @ @ @ T t.) *.( ,.1.,.U O @ o t.5.q O e 2.6 # 5 > k @.#X[ K.;.z n ",
"b z +.wXwXrXm j 4X;XE.Q.y U Q # 2.@ C G.X T T &.G.@ @ @ @ @ @ = @ @ *XwXQ.rXF.eXwXY.=X8.- * C.G.u * 1.i S r.5.:.z ;.^.>XK.o.j b ",
"x x X.T...p.+.f #.R 8 5 ) W # >.t.- B G.X Q ! 8.v.@ @ @ @ @ @ @ O 6 5XG.D ) q C.Y.y M.b.8.Q Q 2.t * >.q T U e N d N.I.] U.m j b ",
"  j b M.K.L.7.s #.Z.7 f.Q # ,.e ! , B E.. ! ) B.R O @ @ @ @ @ @ O W eX'.B G.6 XX-X6 ,.H ( e.q b.W * &.O >.<.5 g k H.I.%XOXv x   ",
"  x f A.;X{ S.g O.-X/ C.6 &.7 . ) 6 * Y.,.q F.G.r @ = @ @ @ @ @ o 1.rXC.i b.q G.'.1 ( 7 y &.# D.~ X Q S 1.6.O 9 A Y.` k.y.f j   ",
"  j f +.k.#XT.J 3 B 6 # ,.^ 8.C ~ 8 o , Q.5.8.Y.@ @ @ @ @ @ @ @ - f.XX^ O ^ X *.1.. ) * e / X * O @ , ( G O 2 3 ;.eX5XK.+.f j   ",
"  g g b L.l.c.y.3 ; i OXq E.wXe ! 7 @ O 6 @XY.>.O @ @ @ @ @ @ @ t F.=XE < *.X %.G.. ) e 1 5.%.^ ^ >.&XC ( y 4 3 ].wXwX4Xl g g   ",
"    g 3 y.c.a.g.l 4 r S 1.U./ # ^ 6 @ o O C.=XC @ @ @ @ @ @ @ O Q 5Xm.q ,.q + O C.r.* 2.7 O - - * , u O S K % L 7XwXwXA.3 g     ",
"    9 0 K a.I.rX0.; $ >.E.C >.# 2.e 6 8.q U.XX6 @ @ @ @ @ @ @ @ G.|.Z 1.q , i a # D.8.< 1.u e q q i ^ < t V ; A.#X#X7XK 3 9     ",
"      0 0 r.8X$XB.w 2 9., 8.v.O {.D ^ G.U :Xf.O @ @ @ @ @ @ @ 5 }.^ *.B O 2.! 3.B o |.7 5 ^ ~ ! ! ^ E.u ; ; B @Xh.] m.3 0       ",
"      0 4 K ] I L.0.$ $ / S # # , ^ G 7 XXf.F X o @ @ @ @ @ o F *XD %.r & %.X y D X G.t X . . . . o C @ : : S.k.h.6X~ ; 3       ",
"      2 2 2 3.a./.~.V & 6 ^ Q.X W U 7 XXY ( b.) G @ o O @ @ o 1.=Xi ~ t @ %.O 2.8.O }.< i S.C.C.M.H.2Xt + 0.I.j.;Xe.2 2 2       ",
"        : : V l.i./.G.> O U U W G 7  XZ C 2.U Y.E.T.) r @ o O n.@X7 Q t @ %.o ~ ) Z.2.y XX_ F G F ( ~ O t }.j.s.j.A : 2         ",
"          : ; Q #XrX^.v.O + i ,.>.E.W D &.1 1.8.[.,X XD.b.T 6 C.'.O ~ r * *.* O M.e.e  XC X * & @ o O 6 Y.+XK.I.8.& 2           ",
"          : : : g.k.a.#X1.O O G wX8.Q {.O *.e >.wX8.>.9.1.Q.( ( XXe B Q e &X- ^ D.. Y.G # 6.^ &.u @ & C.$X] _.f.= : :           ",
"            & & q z.>Xa.;X*.+ = ~ u 6 < >.i U [.U 6 Z ~ 8 6.D 6 ^ XX7 W ~ i X 1.6.X R.w q ^ o @ O # C.K.9X(.F.w $ &             ",
"              : & V l.V.[ ^.5.O o * y m.y Z {.D G.- B U o &.> W n.Q '., ~ r.& >.8.X R.q 7 W O O = C.;Xi.I.T.L O :               ",
"              & & O W a._.h./.S.= X r ,.X m.( * b.- B G X %.= S r.. m.Q # D.e *.8.X '.e O = + y {.h.[ c.k.H O & &               ",
"                & & O S K.K.l.#X XS X X o 2.W O ^ O S G X %.5 6 W X n.^ o O X 2.9.X &., O O *.T.eX;XI z.G O & &                 ",
"                  & & O i }.] 5XwX0Xf.w o @ * & ~ O S G X %.= 7 ~ . 6. XW.G.7 U Q + X O C Z.$Xs.k.>Xz.B O & &                   ",
"                    @ @ O 6 n.wXwXwXwX!.,.q O o & O q t O ~ > w W O * 7 7 G i O X O B v.@X(.k.s.h.e.7 O & &                     ",
"                      & & O & 1.7XwX7X` /.@Xf.W 6 O O O O @ @ & > @ @ O o X O 6 ( '.T.J.k.{ ,XT.2.@ O & &                       ",
"                          & @ + i H.h.k./.{ $XoXT.C.,.W B w 5 > > 5 q L Q t.n.4XwXwX5XP 5X#X4.i O @ &                           ",
"                            & & O O i Y.#XL.+X[ [ wX$XJ./.!.l.}.V.Y./.L.s.I._.wXwXwXwXV.B.E @ O @ &                             ",
"                                & & O @ p ' z.L.s.0Xi.P ).a.9Xd.+Xk.a.l.+Xh.} 9XwX,Xb.S @ O & &                                 ",
"                                  & @ @ O O 6 H / 4.i.[ a.k.>Xc.^.K.P.h.+X-XG.6.G = o O @ & &                                   ",
"                                        & & & O O = 5 u W ^ ! 6.) *.*.T u > @ o O @ & &                                         ",
"                                            & @ & @ @ O O o o o o o o O O @ @ @ & @                                             ",
"                                                    @ & & @ & & @ @ & @ & &                                                     "
};
