/* XPM */
static char *_ac975d8d343442da6f4569bdb2b6f47JzgRSsZn6TVT3bR8[] = {
/* columns rows colors chars-per-pixel */
"32 32 179 2 ",
"   c None",
".  c #00002D",
"X  c #000533",
"o  c #000937",
"O  c #000D3B",
"+  c #01123E",
"@  c #000E41",
"#  c #031444",
"$  c #061842",
"%  c #0C1D46",
"&  c #00144B",
"*  c #0C1F49",
"=  c #121D48",
"-  c #011753",
";  c #021A53",
":  c #031D5C",
">  c #14244D",
",  c #1A264E",
"<  c #17284E",
"1  c #18294F",
"2  c #0E2357",
"3  c #152654",
"4  c #1C2B52",
"5  c #1B2E5A",
"6  c #212E54",
"7  c #212F58",
"8  c #233157",
"9  c #25335A",
"0  c #2A365B",
"q  c #2D3A5E",
"w  c #303C5F",
"e  c #052061",
"r  c #04236A",
"t  c #08266A",
"y  c #0B2664",
"u  c #1A2F61",
"i  c #1D3366",
"p  c #1D356F",
"a  c #052671",
"s  c #072974",
"d  c #082A77",
"f  c #0B2D79",
"g  c #0E317E",
"h  c #1D3670",
"j  c #1C397A",
"k  c #153276",
"l  c #223460",
"z  c #2E3C61",
"x  c #263B68",
"c  c #2B3F6E",
"v  c #24376C",
"b  c #323E61",
"n  c #203A74",
"m  c #203B79",
"M  c #34405E",
"N  c #354264",
"B  c #394566",
"V  c #3E4A67",
"C  c #34446A",
"Z  c #3A4669",
"A  c #3C496A",
"S  c #2D467E",
"D  c #2D4272",
"F  c #334673",
"G  c #3A4B72",
"H  c #3B4F7F",
"J  c #374B76",
"K  c #424D6D",
"L  c #45506E",
"P  c #495266",
"I  c #434F71",
"U  c #465272",
"Y  c #4A5574",
"T  c #4E5977",
"R  c #48577B",
"E  c #4E5979",
"W  c #545D76",
"Q  c #535D7A",
"!  c #56617E",
"~  c #5A637D",
"^  c #5A6377",
"/  c #2C4887",
"(  c #284586",
")  c #334E8C",
"_  c #3C5180",
"`  c #3B548C",
"'  c #345192",
"]  c #445A8C",
"[  c #4D5E83",
"{  c #4D618E",
"}  c #566383",
"|  c #5C6682",
" . c #5F6984",
".. c #53638B",
"X. c #566994",
"o. c #636B86",
"O. c #646E89",
"+. c #686F89",
"@. c #687183",
"#. c #667089",
"$. c #6B748C",
"%. c #717785",
"&. c #70778A",
"*. c #757C8C",
"=. c #606F91",
"-. c #6B7690",
";. c #6F7891",
":. c #687798",
">. c #6C7A9A",
",. c #737B93",
"<. c #778197",
"1. c #7D8392",
"2. c #7B849A",
"3. c #7F889E",
"4. c #7D88A0",
"5. c #7E8DAD",
"6. c #87898B",
"7. c #848994",
"8. c #8D8F93",
"9. c #80879D",
"0. c #82899D",
"q. c #888D9B",
"w. c #8D929C",
"e. c #979794",
"r. c #919398",
"t. c #9B9C9D",
"y. c #858CA1",
"u. c #8790A4",
"i. c #8B92A5",
"p. c #8F96A9",
"a. c #9599A3",
"s. c #9B9DA2",
"d. c #9197A9",
"f. c #959BAC",
"g. c #989EAE",
"h. c #989FB1",
"j. c #9FA5B6",
"k. c #A4A4A4",
"l. c #A8A7A4",
"z. c #ABAAA7",
"x. c #A5A6A9",
"c. c #A7A8AA",
"v. c #ACACAC",
"b. c #B1AEA9",
"n. c #B3B1AC",
"m. c #A2A7B6",
"M. c #A6A9B0",
"N. c #ACAEB1",
"B. c #A4AABA",
"V. c #A9AFBE",
"C. c #AEB0B2",
"Z. c #AEB2BF",
"A. c #B4B4B4",
"S. c #B8B7B4",
"D. c #B4B6BB",
"F. c #BCBCBA",
"G. c #C1BFBC",
"H. c #C3C1BC",
"J. c #A5AFC6",
"K. c #ADB6C9",
"L. c #B7BBC7",
"P. c #BBBFCB",
"I. c #B6BED0",
"U. c #BEC2CA",
"Y. c #BFC4D0",
"T. c #B7C1D9",
"R. c #C4C4C5",
"E. c #C7C7C8",
"W. c #C1C8D8",
"Q. c #DDDBD7",
"!. c #DFDDDA",
"~. c #CED4E1",
"^. c #DEDFE0",
"/. c #E0E2E6",
"(. c #EFEDEA",
"). c #EAE8E5",
"_. c #FFFFFF",
"`. c #FDFDFE",
"'. c #F1F4FC",
/* pixels */
"                        O O + O + o o o                         ",
"                  O O > M ^ @.w.7.B.u.W , O O                   ",
"              O O b 7.x.e.R.r.a.8./._.(.k.%.0 + O               ",
"            o 7 *.b.N.&.N 4 4 > > % 5 Y *.z.S.*.4 O             ",
"          O I N.l.W , % 9 4 q Y ! 9 7 % $ 0 ,.E.8.6 @           ",
"        @ O._.D., O 4 N T 7 E o.,.Z , q z b o B t.S.A #         ",
"      & A !.Y.* Q T 9 Y y.K Z 4 +.Q Q Q | i.} % l N.l.G &       ",
"    ; i N.7.5 R ! U N ~ y.I b 4 B Z A 9 0 K 4 K 3 9 N.c.u ;     ",
"    : ;.v.x 9 o.0 A K } o.z 9 A q T A } ,.#.N B b 2 G H.B.:     ",
"  e D H.O.; z B Q -.Q | b q Z N 4 q K 9.3.9.w K Z N & J._._ :   ",
"  t ^ t.h z Q #.i.i.d.d.g.f.0.2.3.3.f.g.9.y.,.B.g.o.R S F.2.t   ",
"  m A.>.h +.-.Q Z > + @ $ * * % % % * % % % % % % < ,.y y.l.m   ",
"s ] G.] D U T #.,.9.2.Q 6 + + + + + + + + + + + o Z i.v X.n.] s ",
"d O.v./ } E b A N o.g.2.m.g.6 O $ + o O O + O O X  .p.[ ' H.:.d ",
"f 3.a.m -.j.$.0 K +.b 0 0.| o $ B 3.L.Z.j.B.m.d.1.,.O.} ) L.3.f ",
"g y.f.j ;.| z A +.Z Y Q d.w O + O 6 9.3.,.<.*.,.i.B.Q I ' s.@.g ",
"d I.~.k U A o.+.Z Y ! A 3.> + + + O . . . X . Q O.$.T E / U.y.f ",
"a I.'.j U N $.K * ! 0 ^ @.+ + + + M A B Z , O ,.B U 9 > / c.<.f ",
"a 5.E.S y.| I Z w W 0 #.Y O + + * U.i.j.J.q.Z &.9 N L C ` F.:.a ",
"r { b._ ..Q B 0 0 E U 3.8 O + O B L.L ;.;.b Y Y q w W ; X.n.{ r ",
"  n N.,.2 A ,.-.8 O ,.w.+ + + O  .u.8 A Y 8 w w q Q z ; W.^.p   ",
"  e *.D.i N y.Y N , #.<.o + + + f.o.0 ,  .U w 8 b N 5 F ).K.:   ",
"  ; F z.+.3 T b I Q g.B . + + 8 0.N 9 K q Q > w N U # 9.n.J ;   ",
"    ; ^ S.C 7 U b o.Q $.#.0 o Y <.9 4 z O.^ Q Q +.Z T b.2.;     ",
"    & 5 A.N.4 z h.! b +.R.y.#.O.+.7 K b o.o.N 0 O x S.x.5 &     ",
"      # N z.a.9 , A I ,.U z A A ,.Y Y U Y E 9 $ z v.H.A @       ",
"        O A v.v.K = b K b 9 7 z B O.b Y Y b O Q R.6.K O         ",
"          o N R._.i.8 $ # 3 4 4 , K Y > = 0 q.n.x.b O           ",
"            O 8 V.F.v.q.W N 3 > 3 = 0 o.P.F.S.1.4 O             ",
"              O o N 7.t.E.z.c.D.x.k.v.Q.`.d.N O O               ",
"                  O O , B P %.w.7.*.$.L 4 O O                   ",
"                        O O + O O + o O                         "
};
